# File created by Blade
# Date/Time:  Wed Jan 21 17:41:14 2015
# Frame Rate: 120.000 fps
#------------------------------------------------------
:FULLY-SPECIFIED
:DEGREES
1259
root 12.329973 32.487974 -21.846129 -435.379353 86.366012 -525.189643
Spine 63.663126 4.913540 -1.211080
Head -22.834087 5.835363 12.221377
LeftShoulder -6.393840 -43.691109 46.082680
LeftArm 56.292709 -37.580855 1.804641
LeftForeArm -16.151073 -0.000000 -9.836409
LeftHand 6.044180 -0.000000 38.793193
LeftHandThumb1 -26.253704 0.000000 33.147579
RightShoulder -1.111959 18.354722 -32.569062
RightArm 52.481085 65.704794 6.308970
RightForeArm -4.357821 -0.000000 8.349012
RightHand -4.883754 -0.000000 -53.696067
RightHandThumb1 -24.326973 -0.000000 -32.862282
LeftUpLeg -63.931421 -3.860571 3.180130
LeftLeg 0.221689 -0.000000 -0.000000
LeftFoot -41.134092 23.874874 -15.412790
LeftToeBase 21.503445 -0.000000 -0.000000
RightUpLeg -62.251392 1.535077 3.111812
RightLeg -2.769822 -0.000000 0.000000
RightFoot -39.508406 -20.810820 19.885577
RightToeBase 22.597445 -0.000000 -0.000000
1260
root 12.316620 32.494275 -21.829340 -434.434360 86.436005 -524.260966
Spine 63.784371 5.016028 -1.219794
Head -23.192529 5.901285 12.128336
LeftShoulder -6.448302 -43.769525 46.215752
LeftArm 56.107868 -37.713748 1.843136
LeftForeArm -16.183584 -0.000000 -9.853604
LeftHand 6.087067 -0.000000 38.700742
LeftHandThumb1 -26.253704 0.000000 33.147579
RightShoulder -1.175602 18.346864 -32.591447
RightArm 51.641445 65.742430 5.355507
RightForeArm -4.088679 -0.000000 8.315181
RightHand -4.927687 -0.000000 -53.570636
RightHandThumb1 -24.326973 -0.000000 -32.862282
LeftUpLeg -63.919464 -3.802880 3.125210
LeftLeg 0.137356 -0.000000 -0.000000
LeftFoot -41.085791 23.907102 -15.414545
LeftToeBase 21.505497 -0.000000 -0.000000
RightUpLeg -62.286635 1.576618 3.067962
RightLeg -2.795630 -0.000000 0.000000
RightFoot -39.462306 -20.725293 19.904779
RightToeBase 22.633869 -0.000000 -0.000000
1261
root 12.306787 32.497202 -21.816733 -434.494158 86.509340 -524.312710
Spine 63.945755 5.021185 -1.202037
Head -23.494356 5.782478 12.049371
LeftShoulder -6.516721 -43.887422 46.302539
LeftArm 55.985790 -37.862465 1.812239
LeftForeArm -16.118404 -0.000000 -9.873006
LeftHand 6.127905 -0.000000 38.624216
LeftHandThumb1 -26.253704 0.000000 33.147579
RightShoulder -1.313756 18.507368 -32.673133
RightArm 51.539538 65.768051 5.190729
RightForeArm -4.049199 -0.000000 8.245774
RightHand -4.864720 -0.000000 -53.496905
RightHandThumb1 -24.326973 -0.000000 -32.862282
LeftUpLeg -63.871161 -3.816624 3.070115
LeftLeg 0.022701 -0.000000 -0.000000
LeftFoot -41.024894 23.944523 -15.458416
LeftToeBase 21.506068 -0.000000 -0.000000
RightUpLeg -62.270128 1.535140 3.069072
RightLeg -2.864493 -0.000000 0.000000
RightFoot -39.413269 -20.648884 19.866028
RightToeBase 22.560679 -0.000000 -0.000000
1262
root 12.289667 32.504522 -21.805857 -434.246948 86.591989 -524.099645
Spine 64.050223 4.978137 -1.252233
Head -23.780580 5.742905 11.855047
LeftShoulder -6.654005 -43.940653 46.403524
LeftArm 55.823301 -38.015377 1.804719
LeftForeArm -16.078356 -0.000000 -9.872670
LeftHand 6.187285 -0.000000 38.462600
LeftHandThumb1 -26.253704 0.000000 33.147579
RightShoulder -1.438010 18.661234 -32.832719
RightArm 51.700059 65.870860 5.352660
RightForeArm -4.037250 -0.000000 8.171076
RightHand -4.768756 0.000000 -53.461863
RightHandThumb1 -24.326973 -0.000000 -32.862282
LeftUpLeg -63.894687 -3.768280 2.939911
LeftLeg -0.019834 -0.000000 0.000000
LeftFoot -40.912913 23.875352 -15.426545
LeftToeBase 21.273030 -0.000000 -0.000000
RightUpLeg -62.326735 1.502930 3.066434
RightLeg -2.894768 -0.000000 0.000000
RightFoot -39.353983 -20.599540 19.777466
RightToeBase 22.598372 -0.000000 -0.000000
1263
root 12.270204 32.511744 -21.799560 -433.899047 86.711699 -523.828186
Spine 64.087484 4.963526 -1.274982
Head -24.014076 5.661339 11.704477
LeftShoulder -6.703789 -44.052091 46.436176
LeftArm 55.699411 -38.143628 1.765506
LeftForeArm -16.032517 0.000000 -9.868542
LeftHand 6.255052 -0.000000 38.370735
LeftHandThumb1 -26.253704 0.000000 33.147579
RightShoulder -1.673670 18.883199 -32.981934
RightArm 52.537582 65.956687 6.167985
RightForeArm -4.280601 -0.000000 8.032599
RightHand -4.647201 -0.000000 -53.429624
RightHandThumb1 -24.326973 -0.000000 -32.862282
LeftUpLeg -63.958214 -3.797915 2.881668
LeftLeg -0.109438 -0.000000 0.000000
LeftFoot -40.870242 23.923019 -15.500573
LeftToeBase 21.276582 -0.000000 -0.000000
RightUpLeg -62.442386 1.469101 3.018536
RightLeg -2.906493 -0.000000 0.000000
RightFoot -39.350487 -20.611029 19.681887
RightToeBase 22.720770 -0.000000 -0.000000
